<svg aria-hidden="true" style="position: absolute; width: 0; height: 0; overflow: hidden;" version="1.1" xmlns="http://www.w3.org/2000/svg" xmlns:xlink="http://www.w3.org/1999/xlink">
<defs>
<symbol id="icon-Vector1" viewBox="0 0 32 32">
<path d="M15.986 0c-8.832-0.004-15.986 7.146-15.986 15.971 0 6.979 4.475 12.911 10.707 15.089 0.839 0.211 0.711-0.386 0.711-0.793v-2.768c-4.846 0.568-5.043-2.639-5.368-3.175-0.657-1.121-2.211-1.407-1.746-1.943 1.104-0.568 2.229 0.143 3.532 2.068 0.943 1.396 2.782 1.161 3.714 0.929 0.204-0.839 0.639-1.589 1.239-2.171-5.021-0.9-7.114-3.964-7.114-7.607 0-1.768 0.582-3.393 1.725-4.704-0.729-2.161 0.068-4.011 0.175-4.286 2.075-0.186 4.232 1.486 4.4 1.618 1.178-0.318 2.525-0.486 4.032-0.486 1.514 0 2.864 0.175 4.054 0.496 0.404-0.307 2.404-1.743 4.332-1.568 0.104 0.275 0.882 2.082 0.196 4.214 1.157 1.314 1.746 2.954 1.746 4.725 0 3.65-2.107 6.718-7.143 7.604 0.431 0.424 0.774 0.93 1.007 1.488s0.354 1.157 0.353 1.762v4.018c0.029 0.321 0 0.639 0.536 0.639 6.325-2.132 10.879-8.107 10.879-15.146 0-8.829-7.157-15.975-15.982-15.975z"></path>
</symbol>
<symbol id="icon-Vector" viewBox="0 0 33 32">
<path d="M15.876 6.548c2.511 0 4.877 1.113 6.611 2.853v0.005c0-0.836 0.562-1.468 1.339-1.468h0.197c1.226 0 1.472 1.156 1.472 1.521l0.005 12.986c-0.085 0.851 0.879 1.291 1.414 0.744 2.081-2.141 4.576-11.017-1.296-16.156-5.476-4.797-12.826-4.004-16.733-1.311-4.153 2.87-6.808 9.208-4.229 15.165 2.816 6.495 10.867 8.432 15.658 6.5 2.425-0.979 3.544 2.295 1.023 3.367-3.8 1.621-14.389 1.455-19.335-7.109-3.341-5.785-3.165-15.962 5.701-21.235 6.776-4.036 15.717-2.918 21.106 2.709 5.632 5.888 5.306 16.905-0.192 21.188-2.49 1.948-6.188 0.053-6.162-2.784l-0.028-0.925c-1.734 1.717-4.041 2.725-6.552 2.725-4.967 0-9.34-4.374-9.34-9.336 0-5.016 4.373-9.436 9.34-9.436v-0.002zM22.124 15.628c-0.188-3.635-2.886-5.824-6.146-5.824h-0.123c-3.758 0-5.845 2.96-5.845 6.316 0 3.763 2.521 6.139 5.829 6.139 3.693 0 6.117-2.702 6.294-5.898l-0.009-0.732z"></path>
</symbol>
<symbol id="icon-linkedin" viewBox="0 0 32 32">
<path d="M29 0h-26c-1.65 0-3 1.35-3 3v26c0 1.65 1.35 3 3 3h26c1.65 0 3-1.35 3-3v-26c0-1.65-1.35-3-3-3zM12 26h-4v-14h4v14zM10 10c-1.106 0-2-0.894-2-2s0.894-2 2-2c1.106 0 2 0.894 2 2s-0.894 2-2 2zM26 26h-4v-8c0-1.106-0.894-2-2-2s-2 0.894-2 2v8h-4v-14h4v2.481c0.825-1.131 2.087-2.481 3.5-2.481 2.488 0 4.5 2.238 4.5 5v9z"></path>
</symbol>
<symbol id="icon-linkedin2" viewBox="0 0 32 32">
<path d="M12 12h5.535v2.837h0.079c0.77-1.381 2.655-2.837 5.464-2.837 5.842 0 6.922 3.637 6.922 8.367v9.633h-5.769v-8.54c0-2.037-0.042-4.657-3.001-4.657-3.005 0-3.463 2.218-3.463 4.509v8.688h-5.767v-18z"></path>
<path d="M2 12h6v18h-6v-18z"></path>
<path d="M8 7c0 1.657-1.343 3-3 3s-3-1.343-3-3c0-1.657 1.343-3 3-3s3 1.343 3 3z"></path>
</symbol>
</defs>
</svg>
